<?xml version="1.0" encoding="utf-8"?>
<svg viewBox="0 0 128 128" width="128" height="128" xmlns="http://www.w3.org/2000/svg">
  <path d="M64,0a64,64,0,1,0,64,64A64.07,64.07,0,0,0,64,0Zm0,122a58,58,0,1,1,58-58A58.07,58.07,0,0,1,64,122Z" fill="white"/>
  <path d="M 92.12 35.79 C 90.949 34.62 89.051 34.62 87.88 35.79 L 64 59.75 L 40.13 35.75 C 38.494 34.114 35.701 34.863 35.102 37.097 C 34.824 38.134 35.121 39.241 35.88 40 L 59.76 64 L 35.88 88 C 34.248 89.636 34.999 92.425 37.232 93.02 C 38.268 93.297 39.373 92.999 40.13 92.24 L 64 68.25 L 87.88 92.25 C 89.516 93.886 92.309 93.137 92.908 90.903 C 93.186 89.866 92.889 88.759 92.13 88 L 68.24 64 L 92.13 40 C 93.277 38.83 93.273 36.955 92.12 35.79 Z" style="fill: rgb(255, 255, 255);" transform="matrix(0.707107, 0.707107, -0.707107, 0.707107, 64.001466, -26.513203)"/>
</svg>